<?xml version="1.0" encoding="UTF-8"?>
<svg width="90px" height="90px" viewBox="0 0 90 90" version="1.1" xmlns="http://www.w3.org/2000/svg" xmlns:xlink="http://www.w3.org/1999/xlink">
    <!-- Generator: Sketch 49.3 (51167) - http://www.bohemiancoding.com/sketch -->
    <title>Group 17</title>
    <desc>Created with Sketch.</desc>
    <defs>
        <linearGradient x1="-1.11022302e-14%" y1="50%" x2="100%" y2="50%" id="linearGradient-1">
            <stop stop-color="#FE8457" offset="0%"></stop>
            <stop stop-color="#FEB57A" offset="100%"></stop>
        </linearGradient>
        <path d="M70.5816092,49.4777299 C63.5194684,42.5626437 56.3103448,40.208477 48.5127155,42.5626437 C50.866523,34.7650144 48.5127155,27.555819 41.4505747,20.49375 C40.862069,19.9052443 39.9792385,19.9052443 39.3908046,20.49375 C38.8023707,21.0821839 38.8023707,21.9650144 39.3908046,22.5534483 C46.3058908,29.4682471 48.0712644,36.2362787 44.8345546,43.8868534 C37.1839799,46.9765086 30.4159483,45.3581897 23.5011494,38.4431034 C22.9127155,37.8546695 22.0298851,37.8546695 21.4414511,38.4431034 C20.8529454,39.0315374 20.8529454,39.9143678 21.4414511,40.5028736 C26.7378592,45.7992816 32.0346264,48.3005029 37.7724856,48.3005029 C39.6852011,48.3005029 41.5976293,48.0063937 43.5103448,47.4179598 C41.1561782,55.2155891 43.5103448,62.4247126 50.425431,69.4868534 C50.7194684,69.7809626 51.1609195,69.9282328 51.4553161,69.9282328 C51.896408,69.9282328 52.1908046,69.7809626 52.4851293,69.4868534 C53.0736351,68.8984195 53.0736351,68.0155172 52.4851293,67.4270833 C45.5701149,60.5119971 43.8046695,53.7442529 47.0413793,46.0936782 C54.691954,43.004023 61.4596983,44.6224138 68.3747845,51.5374282 C68.6688937,51.8315374 69.110273,51.978592 69.4046695,51.978592 C69.8461207,51.978592 70.140158,51.8315374 70.4345546,51.5374282 C71.1700431,50.9487069 71.1700431,50.0661638 70.5816092,49.4777299 Z" id="path-2"></path>
        <filter x="-14.0%" y="-10.0%" width="128.0%" height="128.1%" filterUnits="objectBoundingBox" id="filter-3">
            <feOffset dx="0" dy="2" in="SourceAlpha" result="shadowOffsetOuter1"></feOffset>
            <feGaussianBlur stdDeviation="2" in="shadowOffsetOuter1" result="shadowBlurOuter1"></feGaussianBlur>
            <feColorMatrix values="0 0 0 0 0.951876063   0 0 0 0 0.31750289   0 0 0 0 0.0887125655  0 0 0 1 0" type="matrix" in="shadowBlurOuter1"></feColorMatrix>
        </filter>
        <path d="M34.6828305,43.004023 C34.9769397,43.2984195 35.418319,43.4454741 35.7127155,43.4454741 C36.0068247,43.4454741 36.448204,43.2984195 36.7426006,43.004023 L44.0987787,35.6478448 C44.6872845,35.0591236 44.6872845,34.1765086 44.0987787,33.5877874 C43.5103448,32.9993534 42.6275144,32.9993534 42.0390086,33.5877874 L34.6828305,40.9442529 C34.0943247,41.385704 34.0943247,42.4155891 34.6828305,43.004023 Z M29.8275144,40.355819 C30.2688937,40.355819 30.5632902,40.208477 30.8573994,39.9143678 L41.1561782,29.6155891 C41.7449713,29.0271552 41.7449713,28.1443247 41.1561782,27.555819 C40.5677443,26.9673851 39.6852011,26.9673851 39.096408,27.555819 L28.7976293,37.8546695 C28.2091954,38.4431034 28.2091954,39.3259339 28.7976293,39.9143678 C29.0920259,40.208477 29.3860632,40.355819 29.8275144,40.355819 Z M57.340158,46.6821839 C56.7517241,46.0936782 55.8688937,46.0936782 55.2804598,46.6821839 L47.9242098,54.0386494 C47.3357759,54.6270833 47.3357759,55.5096264 47.9242098,56.0984195 C48.218319,56.3924569 48.6596983,56.5395115 48.9540948,56.5395115 C49.248204,56.5395115 49.6895833,56.3924569 49.9839799,56.0984195 L57.340158,48.7418822 C57.9286638,48.3005029 57.9286638,47.2706178 57.340158,46.6821839 Z M61.1655891,49.6247126 L50.866523,59.9235632 C50.2780891,60.5119971 50.2780891,61.3948276 50.866523,61.9833333 C51.1609195,62.277658 51.6022989,62.4247126 51.896408,62.4247126 C52.1908046,62.4247126 52.6321839,62.277658 52.9262931,61.9833333 L63.2253592,51.6844828 C63.8138649,51.0960489 63.8138649,50.2132184 63.2253592,49.6247126 C62.6369253,49.0362787 61.7540948,49.0362787 61.1655891,49.6247126 Z" id="path-4"></path>
        <filter x="-19.8%" y="-14.2%" width="139.6%" height="139.6%" filterUnits="objectBoundingBox" id="filter-5">
            <feOffset dx="0" dy="2" in="SourceAlpha" result="shadowOffsetOuter1"></feOffset>
            <feGaussianBlur stdDeviation="2" in="shadowOffsetOuter1" result="shadowBlurOuter1"></feGaussianBlur>
            <feComposite in="shadowBlurOuter1" in2="SourceAlpha" operator="out" result="shadowBlurOuter1"></feComposite>
            <feColorMatrix values="0 0 0 0 0.951876063   0 0 0 0 0.31750289   0 0 0 0 0.0887125655  0 0 0 1 0" type="matrix" in="shadowBlurOuter1"></feColorMatrix>
        </filter>
    </defs>
    <g id="Page-1" stroke="none" stroke-width="1" fill="none" fill-rule="evenodd">
        <g id="首页" transform="translate(-596.000000, -398.000000)">
            <g id="Group-17" transform="translate(596.000000, 398.000000)">
                <circle id="Oval-2-Copy-3" fill="url(#linearGradient-1)" cx="45" cy="45" r="45"></circle>
                <g id="Fill-1">
                    <use fill="black" fill-opacity="1" filter="url(#filter-3)" xlink:href="#path-2"></use>
                    <use fill="#FFFFFF" fill-rule="evenodd" xlink:href="#path-2"></use>
                </g>
                <g id="Fill-3">
                    <use fill="black" fill-opacity="1" filter="url(#filter-5)" xlink:href="#path-4"></use>
                    <use fill-opacity="0.7" fill="#FFFFFF" fill-rule="evenodd" xlink:href="#path-4"></use>
                </g>
            </g>
        </g>
    </g>
</svg>