<?xml version="1.0" encoding="UTF-8"?>
<svg width="90px" height="90px" viewBox="0 0 90 90" version="1.1" xmlns="http://www.w3.org/2000/svg" xmlns:xlink="http://www.w3.org/1999/xlink">
    <title>招生计划</title>
    <defs>
        <linearGradient x1="100%" y1="50%" x2="0.369510135%" y2="50%" id="linearGradient-1">
            <stop stop-color="#2CBBFF" offset="0%"></stop>
            <stop stop-color="#006FFF" offset="100%"></stop>
        </linearGradient>
    </defs>
    <g id="招生计划" stroke="none" stroke-width="1" fill="none" fill-rule="evenodd">
        <circle id="椭圆形" fill="url(#linearGradient-1)" cx="45" cy="45" r="45"></circle>
        <g id="jihua" transform="translate(25.000000, 23.000000)" fill="#FFFFFF" fill-rule="nonzero">
            <path d="M11.1112252,4.50001144 L4.05540361,4.50001144 C1.82254126,4.50001144 0,6.33826077 0,8.60652384 L0,40.8943785 C0,43.1543264 1.81520886,45 4.05540361,45 L35.9440098,45 C38.1771654,45 40,43.1617507 40,40.8943785 L40,8.60652384 C40,6.34568504 38.1844978,4.50001144 35.9440098,4.50001144 L28.8884815,4.50001144 L28.8884815,4.90656448 C28.8884815,7.16740328 27.0861777,8.9997132 24.8547818,8.9997132 L15.1452182,8.9997132 C12.9176352,8.9997132 11.1115185,7.16740328 11.1115185,4.90656448 L11.1112252,4.50001144 Z M30.3881039,21.3928992 L19.9675908,33.4983204 C19.6901328,33.9307099 19.133457,34.235105 18.5178287,34.235105 C18.0330105,34.235105 17.4660693,34.1038439 17.0786253,33.7427274 L10.9009319,28.4132892 C10.0843959,27.5921649 10.0060859,26.4140817 10.6601359,25.49466 C11.5359178,24.5859293 12.7445905,24.5214867 13.5766712,25.2267924 L18.2579685,29.2320377 L27.3284402,18.6762102 C28.1429231,17.8405343 29.3515959,17.782328 30.1857297,18.484961 C31.0210367,19.3271702 31.0823355,20.5509869 30.3881039,21.3928992 Z M13.3332206,3.375086 C13.3332206,1.51100021 14.8114473,6.33241947e-06 16.6633182,6.33241947e-06 L23.3363885,6.33241947e-06 C24.2206671,-0.001729346 25.0691764,0.353403016 25.6941541,0.986824485 C26.3191319,1.62024595 26.6690479,2.47972998 26.6664861,3.375086 C26.6691267,4.27043903 26.3192267,5.12993897 25.6942233,5.76333065 C25.0692199,6.39672232 24.2206641,6.75176296 23.3363885,6.74987056 L16.6636115,6.74987056 C15.7792851,6.7518421 14.9306538,6.39683639 14.3055868,5.7634361 C13.6805199,5.13003581 13.3305796,4.27049061 13.3332206,3.375086 L13.3332206,3.375086 Z" id="形状"></path>
        </g>
    </g>
</svg>