<?xml version="1.0" encoding="UTF-8"?>
<svg width="90px" height="90px" viewBox="0 0 90 90" version="1.1" xmlns="http://www.w3.org/2000/svg" xmlns:xlink="http://www.w3.org/1999/xlink">
    <!-- Generator: Sketch 49.3 (51167) - http://www.bohemiancoding.com/sketch -->
    <title>Group 19</title>
    <desc>Created with Sketch.</desc>
    <defs>
        <linearGradient x1="-1.11022302e-14%" y1="50%" x2="100%" y2="50%" id="linearGradient-1">
            <stop stop-color="#FEB52B" offset="0%"></stop>
            <stop stop-color="#FEF045" offset="100%"></stop>
        </linearGradient>
        <path d="M28.5738874,19.691319 C27.1225639,20.253025 27.4295642,20.249554 25.9666613,19.683187 L13.7674581,15.2499344 L27.3993788,9.41216895 C27.9982372,9.15571209 28.2889571,8.42804301 28.0490575,7.78749588 C27.7884734,7.0888344 27.1086588,6.77773418 26.5109881,7.03538109 L10.3785293,14.0184258 C10.2859443,14.0579455 10.2372518,14.1009362 10.2198333,14.147398 C8.09339623,15.9114067 7.47504106,18.6352939 7.39151165,21.6817357 C8.11309096,22.166931 8.59383043,23.0267458 8.59383043,24.0074007 C8.59383043,24.9220076 8.17687615,25.7320384 7.53283866,26.2300269 C7.89778499,31.9178454 8.46645797,37.6372499 3.7896027,39.7888199 C2.50860397,39.3305495 1.65500068,38.8732213 0,37.5014845 C3.34483828,33.2258646 4.48337186,29.6177665 4.88172006,26.4597571 C4.04434761,26.0070899 3.46874684,25.0787478 3.46874684,24.0074007 C3.46874684,22.8388658 4.15202534,21.8418972 5.11117852,21.4462039 C5.14462987,18.3370364 5.30565161,15.6560903 7.78891965,13.078431 L2.18077082,11.0382304 C0.719253549,10.4730534 0.709999994,9.55611603 2.16008641,8.99555051 L25.7663986,0.418972547 C27.2174747,-0.142733435 26.9105239,-0.139262441 28.3722391,0.42710459 L51.8384119,9.07106942 C53.3011168,9.63862651 53.311558,10.5542251 51.8604819,11.1159311 L28.5738874,19.691319 Z" id="path-2"></path>
        <filter x="-13.2%" y="-12.6%" width="126.4%" height="135.2%" filterUnits="objectBoundingBox" id="filter-3">
            <feOffset dx="0" dy="2" in="SourceAlpha" result="shadowOffsetOuter1"></feOffset>
            <feGaussianBlur stdDeviation="2" in="shadowOffsetOuter1" result="shadowBlurOuter1"></feGaussianBlur>
            <feColorMatrix values="0 0 0 0 0.972151361   0 0 0 0 0.656384106   0 0 0 0 0.0467778797  0 0 0 1 0" type="matrix" in="shadowBlurOuter1"></feColorMatrix>
        </filter>
        <path d="M43.7160674,26.2937444 C43.7160674,27.0517103 43.1682273,27.8349649 42.4594149,28.4675783 C32.9043035,34.0126398 21.0257581,34.0707541 12.4319277,28.9816325 C11.9455965,28.7868106 11.6038583,28.1681307 11.408247,27.5343768 C12.0071054,26.7963939 12.3614126,25.8076069 12.3614126,24.7223263 C12.3614126,23.5142717 11.9351553,22.4268589 11.1627557,21.670083 L11.1627557,17.6371848 L25.9295482,22.9990274 C27.392451,23.5665349 27.0970795,23.5700555 28.5472154,23.0071595 L43.7160674,17.4131074 L43.7160674,26.2937444 Z" id="path-4"></path>
        <filter x="-21.5%" y="-32.7%" width="143.0%" height="191.5%" filterUnits="objectBoundingBox" id="filter-5">
            <feOffset dx="0" dy="2" in="SourceAlpha" result="shadowOffsetOuter1"></feOffset>
            <feGaussianBlur stdDeviation="2" in="shadowOffsetOuter1" result="shadowBlurOuter1"></feGaussianBlur>
            <feComposite in="shadowBlurOuter1" in2="SourceAlpha" operator="out" result="shadowBlurOuter1"></feComposite>
            <feColorMatrix values="0 0 0 0 0.972151361   0 0 0 0 0.656384106   0 0 0 0 0.0467778797  0 0 0 1 0" type="matrix" in="shadowBlurOuter1"></feColorMatrix>
        </filter>
    </defs>
    <g id="Page-1" stroke="none" stroke-width="1" fill="none" fill-rule="evenodd">
        <g id="首页" transform="translate(-419.000000, -571.000000)">
            <g id="Group-19" transform="translate(419.000000, 571.000000)">
                <circle id="Oval-2-Copy-6" fill="url(#linearGradient-1)" cx="45" cy="45" r="45"></circle>
                <g id="学士帽" transform="translate(19.000000, 25.000000)">
                    <g id="Path">
                        <use fill="black" fill-opacity="1" filter="url(#filter-3)" xlink:href="#path-2"></use>
                        <use fill="#FFFFFF" fill-rule="evenodd" xlink:href="#path-2"></use>
                    </g>
                    <g id="Path">
                        <use fill="black" fill-opacity="1" filter="url(#filter-5)" xlink:href="#path-4"></use>
                        <use fill-opacity="0.7" fill="#FFFFFF" fill-rule="evenodd" xlink:href="#path-4"></use>
                    </g>
                </g>
            </g>
        </g>
    </g>
</svg>