<?xml version="1.0" encoding="UTF-8"?>
<svg width="90px" height="90px" viewBox="0 0 90 90" version="1.1" xmlns="http://www.w3.org/2000/svg" xmlns:xlink="http://www.w3.org/1999/xlink">
    <title>AI填志愿</title>
    <defs>
        <linearGradient x1="99.7307855%" y1="50%" x2="0%" y2="50%" id="linearGradient-1">
            <stop stop-color="#FF835B" offset="0%"></stop>
            <stop stop-color="#FE2222" offset="100%"></stop>
        </linearGradient>
    </defs>
    <g id="AI填志愿" stroke="none" stroke-width="1" fill="none" fill-rule="evenodd">
        <circle id="椭圆形" fill="url(#linearGradient-1)" cx="45" cy="45" r="45"></circle>
        <g id="xueshengguanlihei" transform="translate(19.000000, 13.000000)" fill-rule="nonzero">
            <path d="M25.6082243,22.2535808 C31.8518129,22.2535808 36.8038925,17.3381077 36.8038925,11.1406728 L36.8038925,10.4990828 C36.3731168,4.30164783 31.2058539,-0.400232597 24.9618562,0.0269526701 C19.3638175,0.454950077 14.8425136,4.72923917 14.4117379,10.2858962 C13.9813713,16.9109225 19.1486342,22.2535808 25.6082243,22.2535808 Z" id="形状" fill="#FFFFFF"></path>
            <path d="M29.0523845,26.1006846 C28.6220178,26.9554612 26.0381818,31.2297503 25.8229985,31.6573417 C25.6078152,31.8713404 25.1770395,31.8713404 25.1770395,31.6573417 C24.9614471,31.443749 22.5932035,26.9558673 21.9472445,26.1006846 C14.1965546,26.9554612 3.00001664,30.5885664 3.00001664,37 L3.00001664,33.5328871 C2.99788149,34.0437071 3.20134782,34.5342322 3.56524535,34.8954397 C3.92914288,35.2566473 4.423321,35.4586095 4.93794517,35.456439 L46.0616838,35.456439 C46.5762745,35.4585002 47.0703885,35.2565028 47.434262,34.8953191 C47.7981356,34.5341354 48.0016373,34.0436739 47.9999901,33.5328871 L47.9999901,37 C47.9999901,30.5885664 37.0190758,26.9554612 29.0523845,26.1006846 Z" id="路径" fill="#FFC9C0"></path>
            <path d="M46.3704609,29.1971797 C47.0040104,29.0852889 47.6558804,29.2344095 48.1777734,29.6106172 C48.7004328,29.9846287 49.0076326,30.590209 49.0007109,31.2328672 L49.0007109,31.2328672 L49.0007109,39.0606172 L50.1819609,39.0606172 L50.2016484,39.0566797 C50.5131972,39.0413561 50.8171461,39.1559413 51.0410436,39.3731219 C51.2649411,39.5903024 51.3887283,39.8906212 51.3830954,40.2024922 L51.3830954,40.2024922 L51.3830954,44.8172422 C51.3724043,45.4963272 50.8255717,46.0449014 50.1465234,46.0575547 L50.1465234,46.0575547 L48.9652734,46.0575547 L48.9652734,53.5388047 C48.8869898,54.7078835 48.0680323,55.6950764 46.9335234,55.9879297 C46.806087,56.0281839 46.6734079,56.0494126 46.5397734,56.0509297 C39.7929658,56.3863582 33.2005611,58.1896618 27.2223984,61.3350547 C26.8295563,61.6551882 26.3351291,61.8241874 25.8285234,61.8114922 L25.8285234,61.8114922 L25.7655234,61.8114922 C25.2265858,61.8403203 24.6957409,61.6708422 24.2732109,61.3350547 C18.2965469,58.1858639 11.7032867,56.3823263 4.95583594,56.0509297 C4.81408594,56.0194297 4.68808594,56.0194297 4.56208594,55.9879297 C3.42197513,55.703946 2.59886793,54.7117509 2.53033594,53.5388047 L2.53033594,53.5388047 L2.53033594,46.1244922 C2.47089074,46.1503944 2.40596861,46.1612148 2.34133594,46.1559922 L1.29396094,46.1559922 C0.614912719,46.1433389 0.0680800283,45.5947647 0.0575859375,44.9156797 L0.0575859375,44.9156797 L0.0575859375,40.3009297 C0.0680800283,39.6218447 0.614912719,39.0732705 1.29396094,39.0606172 L1.29396094,39.0606172 L2.34133594,39.0606172 C2.40433594,39.0606172 2.46733594,39.0921172 2.53033594,39.0921172 L2.53033594,39.0921172 L2.53033594,31.2643672 C2.53680358,30.6249085 2.84110432,30.0250429 3.35327344,29.6421172 C3.86707767,29.2483684 4.52669445,29.0974756 5.16058594,29.2286797 C12.4043459,29.2060425 19.5228827,31.1171868 25.7812734,34.7648047 C32.0181743,31.0897355 39.1313928,29.1662146 46.3704609,29.1971797 Z M22.5670959,38.006 L19.7740959,38.006 L14.0410959,53 L16.6660959,53 L18.0310959,49.241 L24.3100959,49.241 L25.6750959,53 L28.3000959,53 L22.5670959,38.006 Z M34.358,38.006 L31.901,38.006 L31.901,53 L34.358,53 L34.358,38.006 Z M21.2230959,40.652 L23.5750959,47.225 L18.7660959,47.225 L21.1390959,40.652 L21.2230959,40.652 Z" id="形状结合" fill="#FFFFFF"></path>
        </g>
    </g>
</svg>